<svg id="visual" viewBox="0 0 450 900" width="450" height="900" xmlns="http://www.w3.org/2000/svg" xmlns:xlink="http://www.w3.org/1999/xlink" version="1.1"><rect x="0" y="0" width="450" height="900" fill="#001220"></rect><defs><linearGradient id="grad1_0" x1="0%" y1="0%" x2="100%" y2="100%"><stop offset="30%" stop-color="#001220" stop-opacity="1"></stop><stop offset="70%" stop-color="#001220" stop-opacity="1"></stop></linearGradient></defs><defs><linearGradient id="grad2_0" x1="0%" y1="0%" x2="100%" y2="100%"><stop offset="30%" stop-color="#001220" stop-opacity="1"></stop><stop offset="70%" stop-color="#001220" stop-opacity="1"></stop></linearGradient></defs><g transform="translate(450, 0)"><path d="M0 247.5C-47.8 243.6 -95.7 239.8 -123.7 214.3C-151.8 188.9 -160.2 141.8 -177.5 102.5C-194.9 63.2 -221.2 31.6 -247.5 0L0 0Z" fill="#FBAE3C"></path></g><g transform="translate(0, 900)"><path d="M0 -247.5C36.4 -229.5 72.8 -211.5 111.5 -193.1C150.2 -174.7 191.3 -156 214.3 -123.8C237.4 -91.5 242.4 -45.8 247.5 0L0 0Z" fill="#FBAE3C"></path></g></svg>