<svg id="visual" viewBox="0 0 768 1024" width="768" height="1024" xmlns="http://www.w3.org/2000/svg" xmlns:xlink="http://www.w3.org/1999/xlink" version="1.1"><rect x="0" y="0" width="768" height="1024" fill="#001220"></rect><defs><linearGradient id="grad1_0" x1="0%" y1="0%" x2="100%" y2="100%"><stop offset="30%" stop-color="#001220" stop-opacity="1"></stop><stop offset="70%" stop-color="#001220" stop-opacity="1"></stop></linearGradient></defs><defs><linearGradient id="grad2_0" x1="0%" y1="0%" x2="100%" y2="100%"><stop offset="30%" stop-color="#001220" stop-opacity="1"></stop><stop offset="70%" stop-color="#001220" stop-opacity="1"></stop></linearGradient></defs><g transform="translate(768, 0)"><path d="M0 352C-72.4 349 -144.7 346.1 -176 304.8C-207.3 263.6 -197.5 184.2 -220 127C-242.5 69.8 -297.2 34.9 -352 0L0 0Z" fill="#FBAE3C"></path></g><g transform="translate(0, 1024)"><path d="M0 -352C74.3 -350.2 148.6 -348.3 176 -304.8C203.4 -261.4 183.7 -176.2 205.2 -118.5C226.8 -60.8 289.4 -30.4 352 0L0 0Z" fill="#FBAE3C"></path></g></svg>